<svg width="36" height="30" viewBox="0 0 36 30" fill="none" xmlns="http://www.w3.org/2000/svg">
<path d="M0 6C0 2.68629 2.68629 0 6 0H30C33.3137 0 36 2.68629 36 6V24C36 27.3137 33.3137 30 30 30H6C2.68629 30 0 27.3137 0 24V6Z" fill="#262B43" fill-opacity="0.08"/>
<path d="M17.1665 14.167V10.8337H18.8332V14.167H22.1665V15.8337H18.8332V19.167H17.1665V15.8337H13.8332V14.167H17.1665ZM17.9998 23.3337C13.3973 23.3337 9.6665 19.6028 9.6665 15.0003C9.6665 10.3978 13.3973 6.66699 17.9998 6.66699C22.6023 6.66699 26.3332 10.3978 26.3332 15.0003C26.3332 19.6028 22.6023 23.3337 17.9998 23.3337ZM17.9998 21.667C19.7679 21.667 21.4636 20.9646 22.7139 19.7144C23.9641 18.4641 24.6665 16.7684 24.6665 15.0003C24.6665 13.2322 23.9641 11.5365 22.7139 10.2863C21.4636 9.03604 19.7679 8.33366 17.9998 8.33366C16.2317 8.33366 14.536 9.03604 13.2858 10.2863C12.0355 11.5365 11.3332 13.2322 11.3332 15.0003C11.3332 16.7684 12.0355 18.4641 13.2858 19.7144C14.536 20.9646 16.2317 21.667 17.9998 21.667Z" fill="#808080" fill-opacity="0.55"/>
</svg>
