<svg width="34" height="30" viewBox="0 0 34 30" fill="none" xmlns="http://www.w3.org/2000/svg">
<path d="M0 6C0 2.68629 2.68629 0 6 0H28C31.3137 0 34 2.68629 34 6V24C34 27.3137 31.3137 30 28 30H6C2.68629 30 0 27.3137 0 24V6Z" fill="#262B43" fill-opacity="0.08"/>
<path d="M8.75 16.8747C8.74954 16.0463 8.96032 15.2315 9.36241 14.5072C9.76451 13.7829 10.3446 13.1731 11.048 12.7355C11.2336 11.288 11.9403 9.95783 13.0359 8.99382C14.1314 8.02981 15.5407 7.49805 17 7.49805C18.4593 7.49805 19.8686 8.02981 20.9641 8.99382C22.0597 9.95783 22.7664 11.288 22.952 12.7355C23.8244 13.2782 24.503 14.0828 24.891 15.0342C25.2789 15.9856 25.3563 17.0353 25.1121 18.0333C24.8679 19.0314 24.3146 19.9267 23.5313 20.5916C22.7479 21.2565 21.7745 21.6568 20.75 21.7355L13.25 21.7497C10.733 21.5442 8.75 19.4412 8.75 16.8747ZM20.636 20.24C21.3454 20.1854 22.0194 19.9081 22.5617 19.4476C23.104 18.9871 23.487 18.367 23.6558 17.6759C23.8247 16.9847 23.7708 16.2579 23.5019 15.5992C23.233 14.9406 22.7628 14.3837 22.1585 14.0082L21.5532 13.631L21.4633 12.9245C21.3231 11.8397 20.7927 10.8432 19.9712 10.121C19.1497 9.39888 18.0934 9.00059 16.9996 9.00059C15.9059 9.00059 14.8495 9.39888 14.0281 10.121C13.2066 10.8432 12.6762 11.8397 12.536 12.9245L12.446 13.631L11.8423 14.0082C11.238 14.3836 10.7678 14.9404 10.4988 15.5991C10.2299 16.2577 10.176 16.9845 10.3447 17.6756C10.5135 18.3667 10.8963 18.9868 11.4386 19.4473C11.9808 19.9079 12.6547 20.1853 13.364 20.24L13.4938 20.2497H20.5062L20.636 20.24ZM17.75 15.7497V18.7497H16.25V15.7497H14L17 11.9997L20 15.7497H17.75Z" fill="#808080" fill-opacity="0.55"/>
</svg>
