<svg width="30" height="30" viewBox="0 0 30 30" fill="none" xmlns="http://www.w3.org/2000/svg">
<path d="M0 8C0 3.58172 3.58172 0 8 0H22C26.4183 0 30 3.58172 30 8V22C30 26.4183 26.4183 30 22 30H8C3.58172 30 0 26.4183 0 22V8Z" fill="#26C6F9"/>
<path d="M15.0002 24.1667C9.93741 24.1667 5.8335 20.0628 5.8335 15C5.8335 9.93729 9.93741 5.83337 15.0002 5.83337C20.0629 5.83337 24.1668 9.93729 24.1668 15C24.1668 20.0628 20.0629 24.1667 15.0002 24.1667ZM15.0002 22.3334C16.9451 22.3334 18.8103 21.5608 20.1856 20.1855C21.5609 18.8102 22.3335 16.945 22.3335 15C22.3335 13.0551 21.5609 11.1899 20.1856 9.81459C18.8103 8.43932 16.9451 7.66671 15.0002 7.66671C13.0552 7.66671 11.19 8.43932 9.81471 9.81459C8.43945 11.1899 7.66683 13.0551 7.66683 15C7.66683 16.945 8.43945 18.8102 9.81471 20.1855C11.19 21.5608 13.0552 22.3334 15.0002 22.3334ZM14.0835 10.4167H15.9168V12.25H14.0835V10.4167ZM14.0835 14.0834H15.9168V19.5834H14.0835V14.0834Z" fill="white"/>
</svg>
