<svg width="31" height="30" viewBox="0 0 31 30" fill="none" xmlns="http://www.w3.org/2000/svg">
<path d="M0 6C0 2.68629 2.68629 0 6 0H25C28.3137 0 31 2.68629 31 6V24C31 27.3137 28.3137 30 25 30H6C2.68629 30 0 27.3137 0 24V6Z" fill="#262B43" fill-opacity="0.08"/>
<path d="M15.4997 9.375C18.8697 9.375 21.6734 11.8 22.2615 15C21.674 18.2 18.8697 20.625 15.4997 20.625C12.1297 20.625 9.32592 18.2 8.73779 15C9.32529 11.8 12.1297 9.375 15.4997 9.375ZM15.4997 19.375C16.7743 19.3747 18.0112 18.9418 19.0077 18.147C20.0042 17.3522 20.7015 16.2427 20.9853 15C20.7004 13.7583 20.0028 12.65 19.0063 11.8563C18.0099 11.0625 16.7736 10.6303 15.4997 10.6303C14.2257 10.6303 12.9895 11.0625 11.993 11.8563C10.9966 12.65 10.2989 13.7583 10.014 15C10.2979 16.2427 10.9951 17.3522 11.9916 18.147C12.9882 18.9418 14.225 19.3747 15.4997 19.375ZM15.4997 17.8125C14.7537 17.8125 14.0384 17.5162 13.5109 16.9887C12.9835 16.4613 12.6872 15.7459 12.6872 15C12.6872 14.2541 12.9835 13.5387 13.5109 13.0113C14.0384 12.4838 14.7537 12.1875 15.4997 12.1875C16.2456 12.1875 16.961 12.4838 17.4884 13.0113C18.0159 13.5387 18.3122 14.2541 18.3122 15C18.3122 15.7459 18.0159 16.4613 17.4884 16.9887C16.961 17.5162 16.2456 17.8125 15.4997 17.8125ZM15.4997 16.5625C15.9141 16.5625 16.3115 16.3979 16.6045 16.1049C16.8975 15.8118 17.0622 15.4144 17.0622 15C17.0622 14.5856 16.8975 14.1882 16.6045 13.8951C16.3115 13.6021 15.9141 13.4375 15.4997 13.4375C15.0853 13.4375 14.6878 13.6021 14.3948 13.8951C14.1018 14.1882 13.9372 14.5856 13.9372 15C13.9372 15.4144 14.1018 15.8118 14.3948 16.1049C14.6878 16.3979 15.0853 16.5625 15.4997 16.5625Z" fill="#808080" fill-opacity="0.55"/>
</svg>
